<svg xmlns="http://www.w3.org/2000/svg" xmlns:xlink="http://www.w3.org/1999/xlink" width="400" zoomAndPan="magnify" viewBox="0 0 300 74.999997" height="100" preserveAspectRatio="xMidYMid meet" version="1.0"><defs><g/><clipPath id="6d32297562"><path d="M 227.554688 25.300781 L 247 25.300781 L 247 50.050781 L 227.554688 50.050781 Z M 227.554688 25.300781 " clip-rule="nonzero"/></clipPath><clipPath id="21535f5bda"><path d="M 53 25.300781 L 72.210938 25.300781 L 72.210938 50.050781 L 53 50.050781 Z M 53 25.300781 " clip-rule="nonzero"/></clipPath></defs><g clip-path="url(#6d32297562)"><path fill="#ffe2c1" d="M 241.511719 25.300781 L 233.628906 33.359375 L 238.980469 33.359375 L 231.625 40.945312 L 236.550781 40.945312 L 227.683594 50.050781 L 244.960938 38.992188 L 238.585938 38.992188 L 246.929688 30.460938 L 241.511719 30.460938 L 246.339844 25.503906 Z M 241.511719 25.300781 " fill-opacity="1" fill-rule="nonzero"/></g><g fill="#ffe2c1" fill-opacity="1"><g transform="translate(78.425486, 51.18431)"><g><path d="M 4.109375 0.3125 C 3.285156 0.195312 2.644531 -0.117188 2.1875 -0.640625 C 1.738281 -1.160156 1.515625 -1.785156 1.515625 -2.515625 C 1.515625 -3.054688 1.632812 -3.597656 1.875 -4.140625 L 10.234375 -23.859375 C 10.585938 -24.691406 11.210938 -25.109375 12.109375 -25.109375 C 12.984375 -25.109375 13.585938 -24.691406 13.921875 -23.859375 L 22.265625 -4.140625 C 22.503906 -3.597656 22.625 -3.054688 22.625 -2.515625 C 22.625 -1.785156 22.398438 -1.160156 21.953125 -0.640625 C 21.503906 -0.117188 20.867188 0.195312 20.046875 0.3125 L 17.03125 -6.875 L 7.15625 -6.875 Z M 15.859375 -10.125 L 11.5 -21.0625 L 11.1875 -20.921875 L 11.890625 -19.125 L 8.28125 -10.125 Z M 15.859375 -10.125 "/></g></g></g><g fill="#ffe2c1" fill-opacity="1"><g transform="translate(102.569851, 51.18431)"><g><path d="M 2.34375 -23.015625 C 2.34375 -23.535156 2.523438 -23.957031 2.890625 -24.28125 C 3.253906 -24.613281 3.71875 -24.78125 4.28125 -24.78125 L 13.953125 -24.78125 C 16.304688 -24.78125 18.175781 -24.113281 19.5625 -22.78125 C 20.945312 -21.445312 21.640625 -19.632812 21.640625 -17.34375 C 21.640625 -14.5625 20.445312 -12.601562 18.0625 -11.46875 L 18.0625 -11.359375 C 19.09375 -10.890625 19.882812 -10.207031 20.4375 -9.3125 C 21 -8.414062 21.28125 -7.328125 21.28125 -6.046875 L 21.28125 -2.6875 C 21.28125 -1.71875 20.953125 -0.972656 20.296875 -0.453125 C 19.648438 0.0546875 18.710938 0.3125 17.484375 0.3125 L 17.484375 -5.84375 C 17.484375 -8.53125 16.316406 -9.875 13.984375 -9.875 L 6.09375 -9.875 L 6.09375 -2.6875 C 6.09375 -0.6875 4.84375 0.3125 2.34375 0.3125 Z M 13.765625 -13.140625 C 15.023438 -13.140625 16.015625 -13.515625 16.734375 -14.265625 C 17.453125 -15.023438 17.8125 -16.066406 17.8125 -17.390625 C 17.8125 -18.734375 17.46875 -19.75 16.78125 -20.4375 C 16.09375 -21.132812 15.085938 -21.484375 13.765625 -21.484375 L 6.09375 -21.484375 L 6.09375 -13.140625 Z M 13.765625 -13.140625 "/></g></g></g><g fill="#ffe2c1" fill-opacity="1"><g transform="translate(126.183187, 51.18431)"><g><path d="M 9.765625 -21.453125 L 1.171875 -21.453125 C 1.171875 -23.671875 2.195312 -24.78125 4.25 -24.78125 L 22.125 -24.78125 C 22.125 -23.695312 21.863281 -22.867188 21.34375 -22.296875 C 20.832031 -21.734375 20.066406 -21.453125 19.046875 -21.453125 L 13.5625 -21.453125 L 13.5625 -2.6875 C 13.5625 -1.71875 13.234375 -0.972656 12.578125 -0.453125 C 11.929688 0.0546875 10.992188 0.3125 9.765625 0.3125 Z M 9.765625 -21.453125 "/></g></g></g><g fill="#ffe2c1" fill-opacity="1"><g transform="translate(149.477897, 51.18431)"><g><path d="M 11.828125 0.3125 C 9.867188 0.3125 8.101562 -0.0664062 6.53125 -0.828125 C 4.957031 -1.597656 3.726562 -2.65625 2.84375 -4 C 1.957031 -5.34375 1.515625 -6.832031 1.515625 -8.46875 L 1.515625 -16.390625 C 1.515625 -18.023438 1.957031 -19.5 2.84375 -20.8125 C 3.726562 -22.132812 4.957031 -23.179688 6.53125 -23.953125 C 8.101562 -24.722656 9.867188 -25.109375 11.828125 -25.109375 C 13.785156 -25.109375 15.546875 -24.722656 17.109375 -23.953125 C 18.679688 -23.179688 19.914062 -22.132812 20.8125 -20.8125 C 21.71875 -19.5 22.171875 -18.023438 22.171875 -16.390625 L 22.171875 -8.46875 C 22.171875 -6.832031 21.71875 -5.34375 20.8125 -4 C 19.914062 -2.65625 18.679688 -1.597656 17.109375 -0.828125 C 15.546875 -0.0664062 13.785156 0.3125 11.828125 0.3125 Z M 11.828125 -3.015625 C 13.878906 -3.015625 15.488281 -3.507812 16.65625 -4.5 C 17.820312 -5.488281 18.40625 -6.820312 18.40625 -8.5 L 18.40625 -16.328125 C 18.40625 -18.003906 17.820312 -19.335938 16.65625 -20.328125 C 15.488281 -21.316406 13.878906 -21.8125 11.828125 -21.8125 C 9.773438 -21.8125 8.160156 -21.316406 6.984375 -20.328125 C 5.816406 -19.335938 5.234375 -18.003906 5.234375 -16.328125 L 5.234375 -8.5 C 5.234375 -6.820312 5.816406 -5.488281 6.984375 -4.5 C 8.160156 -3.507812 9.773438 -3.015625 11.828125 -3.015625 Z M 11.828125 -3.015625 "/></g></g></g><g fill="#ffe2c1" fill-opacity="1"><g transform="translate(173.126631, 51.18431)"><g><path d="M 10.296875 -8.953125 L 1.515625 -24.640625 C 1.679688 -24.785156 1.957031 -24.898438 2.34375 -24.984375 C 2.738281 -25.066406 3.101562 -25.109375 3.4375 -25.109375 C 4.800781 -25.109375 5.78125 -24.53125 6.375 -23.375 L 12.109375 -12.640625 L 11.296875 -10.96875 L 11.578125 -10.828125 L 17.984375 -23.375 C 18.597656 -24.53125 19.585938 -25.109375 20.953125 -25.109375 C 21.304688 -25.109375 21.671875 -25.066406 22.046875 -24.984375 C 22.429688 -24.898438 22.71875 -24.785156 22.90625 -24.640625 L 14.09375 -8.953125 L 14.09375 -2.6875 C 14.09375 -1.71875 13.765625 -0.972656 13.109375 -0.453125 C 12.460938 0.0546875 11.523438 0.3125 10.296875 0.3125 Z M 10.296875 -8.953125 "/></g></g></g><g fill="#ffe2c1" fill-opacity="1"><g transform="translate(197.518818, 51.18431)"><g><path d="M 3.25 0 C 2.707031 0 2.28125 -0.144531 1.96875 -0.4375 C 1.664062 -0.738281 1.515625 -1.148438 1.515625 -1.671875 C 1.515625 -2.117188 1.632812 -2.46875 1.875 -2.71875 L 18.203125 -22.625 L 17.953125 -22.796875 L 16.859375 -21.53125 L 5.171875 -21.53125 C 4.222656 -21.53125 3.5 -21.804688 3 -22.359375 C 2.507812 -22.910156 2.265625 -23.71875 2.265625 -24.78125 L 20.921875 -24.78125 C 22.078125 -24.78125 22.65625 -24.226562 22.65625 -23.125 C 22.65625 -22.71875 22.539062 -22.363281 22.3125 -22.0625 L 6.015625 -2.1875 L 6.296875 -1.984375 L 7.40625 -3.25 L 19.96875 -3.25 C 20.882812 -3.25 21.582031 -2.972656 22.0625 -2.421875 C 22.550781 -1.867188 22.796875 -1.0625 22.796875 0 Z M 3.25 0 "/></g></g></g><g clip-path="url(#21535f5bda)"><path fill="#ffe2c1" d="M 58.480469 25.300781 L 66.363281 33.359375 L 61.007812 33.359375 L 68.367188 40.945312 L 63.441406 40.945312 L 72.308594 50.050781 L 55.03125 38.992188 L 61.402344 38.992188 L 53.058594 30.460938 L 58.480469 30.460938 L 53.652344 25.503906 Z M 58.480469 25.300781 " fill-opacity="1" fill-rule="nonzero"/></g></svg>