<svg xmlns="http://www.w3.org/2000/svg" version="1.1" xmlns:xlink="http://www.w3.org/1999/xlink" xmlns:svgjs="http://svgjs.com/svgjs" width="512" height="512" x="0" y="0" viewBox="0 0 512 512" style="enable-background:new 0 0 512 512" xml:space="preserve" class=""><g><path d="M296.084 272.015h-80.167c-66.413 0-120.251-53.838-120.251-120.251v0c0-66.413 53.838-120.251 120.251-120.251h80.167c66.413 0 120.251 53.838 120.251 120.251v0c-.001 66.413-53.839 120.251-120.251 120.251z" style="stroke-width: 1; stroke-linecap: round; stroke-linejoin: round; stroke-miterlimit: 10;" fill="none" stroke="#ffe2c1" stroke-width="1" stroke-linecap="round" stroke-linejoin="round" stroke-miterlimit="10" data-original="#000000" class=""></path><path d="M223.933 95.647h96.201c22.138 0 40.084 17.946 40.084 40.084v0c0 22.138-17.946 40.084-40.084 40.084H191.866c-22.138 0-40.084-17.946-40.084-40.084v0c0-22.138 17.946-40.084 40.084-40.084M199.883 131.723v8.016M312.117 131.723v8.016M223.933 207.882c8.954 4.963 19.979 8.017 32.067 8.017s23.113-3.054 32.067-8.017M109.6 95.647H85.817c-7.023 0-13.271 4.551-15.361 11.256-4.421 14.188-6.857 29.236-6.857 44.861 0 15.625 2.436 30.673 6.857 44.861 2.09 6.705 8.338 11.256 15.361 11.256H109.6M402.399 207.882h23.783c7.023 0 13.271-4.551 15.361-11.256 4.421-14.187 6.857-29.236 6.857-44.861 0-15.625-2.436-30.673-6.857-44.861-2.09-6.705-8.338-11.256-15.361-11.256h-23.783M143.766 55.564V18.675c0-8.568 9.256-13.939 16.695-9.688l39.422 22.527M368.234 55.564V18.675c0-8.568-9.256-13.939-16.695-9.688l-39.422 22.527M352.201 259.906v124.343c0 17.71-14.357 32.067-32.067 32.067H191.866c-17.71 0-32.067-14.357-32.067-32.067V259.906" style="stroke-width: 1; stroke-linecap: round; stroke-linejoin: round; stroke-miterlimit: 10;" fill="none" stroke="#ffe2c1" stroke-width="1" stroke-linecap="round" stroke-linejoin="round" stroke-miterlimit="10" data-original="#000000" class=""></path><path d="M264.017 304.082h-48.1c-13.283 0-24.05-10.768-24.05-24.05v-8.017M320.134 272.015v8.017c0 13.283-10.768 24.05-24.05 24.05M215.916 504.5h-48.1c-8.855 0-16.033-7.178-16.033-16.033v0c0-8.855 7.178-16.033 16.033-16.033h48.1c8.855 0 16.033 7.178 16.033 16.033v0c.001 8.855-7.178 16.033-16.033 16.033zM215.916 472.433v-56.117M183.85 472.433v-56.117M296.084 504.5h48.1c8.855 0 16.033-7.178 16.033-16.033v0c0-8.855-7.178-16.033-16.033-16.033h-48.1c-8.855 0-16.033 7.178-16.033 16.033v0c-.001 8.855 7.178 16.033 16.033 16.033zM296.084 472.433v-56.117M328.15 472.433v-56.117M101.335 321.205c-18.155 3.813-32.835 18.492-36.648 36.648-4.613 21.965 5.875 42.13 23.007 52.036 10.653 6.16 24.004-1.644 24.004-13.949v0c0-5.539-2.698-10.969-7.575-13.594-5.032-2.709-8.459-8.027-8.459-14.129 0-8.839 7.191-16.033 16.033-16.033 6.103 0 11.419 3.427 14.127 8.457 2.627 4.878 8.056 7.577 13.596 7.577h0c12.305 0 20.109-13.352 13.949-24.005-9.904-17.133-30.068-27.621-52.034-23.008z" style="stroke-width: 1; stroke-linecap: round; stroke-linejoin: round; stroke-miterlimit: 10;" fill="none" stroke="#ffe2c1" stroke-width="1" stroke-linecap="round" stroke-linejoin="round" stroke-miterlimit="10" data-original="#000000" class=""></path><path d="M159.799 263.999h-13.478a16.032 16.032 0 0 0-14.737 9.718l-19.885 46.399M410.665 321.205c18.155 3.813 32.835 18.492 36.648 36.648 4.613 21.965-5.875 42.13-23.007 52.036-10.653 6.16-24.004-1.644-24.004-13.949v0c0-5.539 2.698-10.969 7.575-13.594 5.032-2.709 8.459-8.027 8.459-14.129 0-8.839-7.191-16.033-16.033-16.033-6.103 0-11.419 3.427-14.127 8.457-2.627 4.878-8.056 7.577-13.596 7.577h0c-12.305 0-20.109-13.352-13.949-24.005 9.904-17.133 30.068-27.621 52.034-23.008z" style="stroke-width: 1; stroke-linecap: round; stroke-linejoin: round; stroke-miterlimit: 10;" fill="none" stroke="#ffe2c1" stroke-width="1" stroke-linecap="round" stroke-linejoin="round" stroke-miterlimit="10" data-original="#000000" class=""></path><path d="M352.201 263.999h13.478a16.032 16.032 0 0 1 14.737 9.718l19.885 46.399" style="stroke-width: 1; stroke-linecap: round; stroke-linejoin: round; stroke-miterlimit: 10;" fill="none" stroke="#ffe2c1" stroke-width="1" stroke-linecap="round" stroke-linejoin="round" stroke-miterlimit="10" data-original="#000000" class=""></path></g></svg>